# xmcd
# 
# Track frame offsets:
#     150
#     14639
#     56502
#     87690
#     117800
#     141134
#     152688
#     162911
#     176627
#     197949
#     216476
#     227113
#     241927
#     250874
#     272620
#     283816
#     307973
# 
# Disc length: 4290
# 
# Revision: 1
# Processed by: cddbd v1.5.2PL0 Copyright (c) Steve Scherf et al.
# Submitted via: BonkEnc v1.0.6
# 
DISCID=f910c011
DTITLE=Various Artist - Assentiel Jazz
DYEAR=2004
DGENRE=Jazz
TTITLE0=Norah Jones - Come away with me
TTITLE1=Miles Davis - So What
TTITLE2=St Germain - Rose rouge
TTITLE3=The dave Brubeck Quartet - Blue rondo a la turk
TTITLE4=Michel Petrucciani - Lulaby
TTITLE5=Lisa Ekdahl - I'm so quiet
TTITLE6=Chet Baker My funny Valentine
TTITLE7=Billie Holiday - The man I love
TTITLE8=Bobby Mc Ferrin and Axel Stordhal - Don't worry, be happy
TTITLE9=Benny Golson Quintet - Blues
TTITLE10=Sinead O'Connor - Why don't you do right
TTITLE11=Peggy Lee - Fever
TTITLE12=The Dave Brubeck Quartet - Unsquare dance
TTITLE13=Wes Montgomery - Summertime
TTITLE14=Sarah Vaughan - Perdido
TTITLE15=Stan Getz - Misty
TTITLE16=Tony Bennett - Stranger in paradise
EXTD=YEAR: 2004
EXTT0=
EXTT1=
EXTT2=
EXTT3=
EXTT4=
EXTT5=
EXTT6=
EXTT7=
EXTT8=
EXTT9=
EXTT10=
EXTT11=
EXTT12=
EXTT13=
EXTT14=
EXTT15=
EXTT16=
PLAYORDER=
